# xmcd
#
# Track frame offsets: 
#        183
#        11940
#        24548
#        39080
#        52478
#        64073
#        77493
#        89078
#        102708
#        115140
#        126835
#        138213
#        151928
#        165560
#        178705
#        193100
#        207693
#        222270
#        234203
#        246480
#        259963
#        272730
#        286118
#        298743
#
# Disc length: 4159 seconds
#
# Revision: 0
# Processed by: cddbd v1.5.1PL0 Copyright (c) Steve Scherf et al.
# Submitted via: ExactAudioCopy v0.95a5
#
DISCID=70103d18
DTITLE=Various Artist - Harmonica Blues (1929 - 40)
DYEAR=1900
DGENRE=Blues
TTITLE0=Smith And Harper - Poor Girl
TTITLE1=Smith And Harper - Insurance Policy Blues
TTITLE2=George Clarke - Prisoner Blues
TTITLE3=George Clarke - Court-House Blues
TTITLE4=George Clarke - More Blues (Harmonica Blues)
TTITLE5=Rhythm Willie - New Block And Tackle Blues
TTITLE6=Rhythm Willie - Breathtakin' Blues
TTITLE7=Rhythm Willie - Bedroom Stomp
TTITLE8=Rhythm Willie - Boarding House Blues
TTITLE9=Eddie Kelly - Goin' Back To Alabama
TTITLE10=Eddie Kelly - Blues In The Rain
TTITLE11=Eddie Kelly - Poole County Blues
TTITLE12=Eddie Kelly - If You Think I'm Lovin' You, You're Wrong
TTITLE13=Eddie Kelly - Corina, I'm Goin' Away
TTITLE14=Eddie Kelly - Shim Shaming
TTITLE15=Eddie Kelly - Come On 'Round To My House, Baby - Pt. 1
TTITLE16=Eddie Kelly - Come On 'Round To My House, Baby - Pt. 2
TTITLE17=Noah Lewis - Ticket Agent Blues
TTITLE18=Noah Lewis - New Minglewood Blues
TTITLE19=Noah Lewis - Bad Luck's My Buddy
TTITLE20=Jed Davenport - I'm Sittin' On Top Of The World
TTITLE21=Jed Davenport - How Long How Long Blues
TTITLE22=Jed Davenport - Cow Cow Blues
TTITLE23=Jed Davenport - Beale Street Breakdown
EXTD=
EXTT0=
EXTT1=
EXTT2=
EXTT3=
EXTT4=
EXTT5=
EXTT6=
EXTT7=
EXTT8=
EXTT9=
EXTT10=
EXTT11=
EXTT12=
EXTT13=
EXTT14=
EXTT15=
EXTT16=
EXTT17=
EXTT18=
EXTT19=
EXTT20=
EXTT21=
EXTT22=
EXTT23=
PLAYORDER=
